<svg width="14" height="15" viewBox="0 0 14 15" fill="none" xmlns="http://www.w3.org/2000/svg">
<path d="M6.58498 3.3916V7.3916H9.48137M12.3778 7.3916C12.3778 8.17953 12.2279 8.95975 11.9368 9.6877C11.6457 10.4157 11.219 11.0771 10.6811 11.6342C10.1432 12.1914 9.50459 12.6334 8.80178 12.9349C8.09897 13.2364 7.3457 13.3916 6.58498 13.3916C5.82426 13.3916 5.07099 13.2364 4.36818 12.9349C3.66537 12.6334 3.02678 12.1914 2.48887 11.6342C1.95096 11.0771 1.52427 10.4157 1.23315 9.6877C0.94204 8.95975 0.792206 8.17953 0.792206 7.3916C0.792206 5.8003 1.40251 4.27418 2.48887 3.14896C3.57523 2.02374 5.04864 1.3916 6.58498 1.3916C8.12132 1.3916 9.59473 2.02374 10.6811 3.14896C11.7674 4.27418 12.3778 5.8003 12.3778 7.3916Z" stroke="currentColor" stroke-width="1.5" stroke-linecap="round" stroke-linejoin="round"/>
</svg>
