<svg viewBox="0 0 24 24" fill="none" xmlns="http://www.w3.org/2000/svg">
<g clip-path="url(#clip0_606_273)">
<path fill-rule="evenodd" clip-rule="evenodd" d="M6.81133 1.62662C4.50017 1.62662 2.6266 3.50019 2.6266 5.81136C2.6266 8.12252 4.50017 9.99609 6.81133 9.99609C9.1225 9.99609 10.9961 8.12252 10.9961 5.81136C10.9961 3.50019 9.1225 1.62662 6.81133 1.62662ZM1.37339 5.81136C1.37339 2.80806 3.80804 0.373413 6.81133 0.373413C9.81463 0.373413 12.2493 2.80806 12.2493 5.81136C12.2493 8.81465 9.81463 11.2493 6.81133 11.2493C3.80804 11.2493 1.37339 8.81465 1.37339 5.81136Z" fill="currentColor"/>
<path fill-rule="evenodd" clip-rule="evenodd" d="M1.67551 13.3542H11.9477V23.6265H1.67551V13.3542ZM2.92872 14.6075V22.3733H10.6945V14.6075H2.92872ZM18.2835 13.6527L24.0415 23.6265H12.5247L18.2835 13.6527ZM14.6954 22.3733H21.871L18.2834 16.1591L14.6954 22.3733Z" fill=currentColor"/>
<path d="M18.6042 6.11287V5.79211H17.9627V6.11287H18.6042ZM17.9627 6.40347V6.72423H18.6042V6.40347H17.9627ZM18.6042 8.72189V8.40114H17.9627V8.72189H18.6042ZM17.9627 9.30118V9.62193H18.6042V9.30118H17.9627ZM18.6042 11.6196V11.2988H17.9627V11.6196H18.6042ZM17.9627 12.1995V12.5203H18.6042V12.1995H17.9627ZM18.6042 14.5179V14.1972H17.9627V14.5179H18.6042ZM17.9627 15.0972V15.418H18.6042V15.0972H17.9627ZM18.6042 17.4156V17.0949H17.9627V17.4156H18.6042ZM17.9627 17.9956V18.3163H18.6042V17.9956H17.9627ZM18.6042 20.314V19.9932H17.9627V20.314H18.6042ZM17.9627 6.11351V6.40347H18.6042V6.11351H17.9627ZM17.9627 8.72189V9.30118H18.6042V8.72189H17.9627ZM17.9627 11.6196V12.1995H18.6042V11.6196H17.9627ZM17.9627 14.5179V15.0972H18.6042V14.5179H17.9627ZM17.9627 17.4156V17.9956H18.6042V17.4156H17.9627ZM17.9627 20.314V20.604H18.6042V20.314H17.9627ZM18.6042 6.11351V5.79211H17.9627V6.11351H18.6042ZM17.9627 6.40347V6.72423H18.6042V6.40347H17.9627ZM18.6042 8.72189V8.40114H17.9627V8.72189H18.6042ZM17.9627 9.30118V9.62193H18.6042V9.30118H17.9627ZM18.6042 11.6196V11.2988H17.9627V11.6196H18.6042ZM17.9627 12.1995V12.5203H18.6042V12.1995H17.9627ZM18.6042 14.5179V14.1972H17.9627V14.5179H18.6042ZM17.9627 15.0972V15.418H18.6042V15.0972H17.9627ZM18.6042 17.4156V17.0949H17.9627V17.4156H18.6042ZM17.9627 17.9956V18.3163H18.6042V17.9956H17.9627ZM18.6042 20.314V19.9932H17.9627V20.314H18.6042ZM17.9627 6.11351V6.40347H18.6042V6.11351H17.9627ZM17.9627 8.72189V9.30118H18.6042V8.72189H17.9627ZM17.9627 11.6196V12.1995H18.6042V11.6196H17.9627ZM17.9627 14.5179V15.0972H18.6042V14.5179H17.9627ZM17.9627 17.4156V17.9956H18.6042V17.4156H17.9627ZM17.9627 20.314V20.604H18.6042V20.314H17.9627Z" fill="currentColor"/>
<path d="M17.6791 6.43363H17.9999V5.79211H17.6791V6.43363ZM17.3071 5.79211H16.9863V6.43363H17.3071V5.79211ZM14.3285 6.43363H14.6493V5.79211H14.3285V6.43363ZM13.5844 5.79211H13.2636V6.43363H13.5844V5.79211ZM10.6052 6.43363H10.926V5.79211H10.6052V6.43363ZM9.86104 5.79211H9.54029V6.43363H9.86104V5.79211ZM6.88186 6.43363H7.20262V5.79211H6.88186V6.43363ZM17.6791 5.79211H17.3071V6.43363H17.6791V5.79211ZM14.3285 5.79211H13.5844V6.43363H14.3285V5.79211ZM10.6052 5.79211H9.86104V6.43363H10.6052V5.79211ZM6.88186 5.79211H6.50979V6.43363H6.88186V5.79211ZM17.6791 6.43363H17.9999V5.79211H17.6791V6.43363ZM17.3071 5.79211H16.9863V6.43363H17.3071V5.79211ZM14.3285 6.43363H14.6493V5.79211H14.3285V6.43363ZM13.5844 5.79211H13.2636V6.43363H13.5844V5.79211ZM10.6052 6.43363H10.926V5.79211H10.6052V6.43363ZM9.86104 5.79211H9.54029V6.43363H9.86104V5.79211ZM6.88186 6.43363H7.20262V5.79211H6.88186V6.43363ZM17.6791 5.79211H17.3071V6.43363H17.6791V5.79211ZM14.3285 5.79211H13.5844V6.43363H14.3285V5.79211ZM10.6052 5.79211H9.86104V6.43363H10.6052V5.79211ZM6.88186 5.79211H6.50979V6.43363H6.88186V5.79211Z" fill="currentColor"/>
<path d="M18.5221 6.02566L18.7357 5.78702L18.2578 5.35913L18.0442 5.59777L18.5221 6.02566ZM7.13143 18.7469L7.3457 18.5082L6.86777 18.0803L6.65351 18.3196L7.13143 18.7469ZM8.51325 16.2424L8.29963 16.4817L8.77755 16.9096L8.99117 16.6703L8.51325 16.2424ZM9.45627 16.1513L9.66989 15.912L9.19197 15.4841L8.97834 15.7234L9.45627 16.1513ZM10.8381 13.6462L10.6238 13.8848L11.1017 14.3134L11.316 14.0741L10.8381 13.6462ZM11.7811 13.5551L11.9947 13.3158L11.5168 12.8879L11.3025 13.1272L11.7811 13.5551ZM13.1623 11.05L12.9487 11.2886L13.4266 11.7172L13.6402 11.4779L13.1623 11.05ZM14.1053 10.9589L14.3189 10.7196L13.841 10.2917L13.6274 10.5304L14.1053 10.9589ZM15.4871 8.45379L15.2729 8.69243L15.7508 9.12032L15.965 8.88167L15.4871 8.45379ZM16.4301 8.36269L16.6438 8.12341L16.1658 7.69552L15.9516 7.93416L16.4301 8.36269ZM17.8113 5.85759L17.5977 6.09623L18.0756 6.52412L18.2892 6.28547L17.8113 5.85759ZM6.89921 19.0067L7.13143 18.7469L6.65351 18.3196L6.42128 18.5788L6.89921 19.0067ZM8.99117 16.6703L9.45627 16.1513L8.97834 15.7234L8.51325 16.243L8.99117 16.6703ZM11.316 14.0741L11.7805 13.5544L11.3025 13.1272L10.8381 13.6462L11.316 14.0741ZM13.6402 11.4779L14.1053 10.9589L13.6274 10.5304L13.1623 11.05L13.6402 11.4779ZM15.965 8.88167L16.4295 8.36205L15.9516 7.93416L15.4871 8.45379L15.965 8.88167ZM18.2892 6.28547L18.5221 6.02566L18.0442 5.59777L17.8113 5.85759L18.2892 6.28547ZM18.5221 6.02566L18.7357 5.78702L18.2578 5.35913L18.0442 5.59777L18.5221 6.02566ZM7.13143 18.7469L7.3457 18.5082L6.86777 18.0803L6.65351 18.3196L7.13143 18.7469ZM8.51325 16.2424L8.29963 16.4817L8.77755 16.9096L8.99117 16.6703L8.51325 16.2424ZM9.45627 16.1513L9.66989 15.912L9.19197 15.4841L8.97834 15.7234L9.45627 16.1513ZM10.8381 13.6462L10.6238 13.8848L11.1017 14.3134L11.316 14.0741L10.8381 13.6462ZM11.7811 13.5551L11.9947 13.3158L11.5168 12.8879L11.3025 13.1272L11.7811 13.5551ZM13.1623 11.05L12.9487 11.2886L13.4266 11.7172L13.6402 11.4779L13.1623 11.05ZM14.1053 10.9589L14.3189 10.7196L13.841 10.2917L13.6274 10.5304L14.1053 10.9589ZM15.4871 8.45379L15.2729 8.69243L15.7508 9.12032L15.965 8.88167L15.4871 8.45379ZM16.4301 8.36269L16.6438 8.12341L16.1658 7.69552L15.9516 7.93416L16.4301 8.36269ZM17.8113 5.85759L17.5977 6.09623L18.0756 6.52412L18.2892 6.28547L17.8113 5.85759ZM6.89921 19.0067L7.13143 18.7469L6.65351 18.3196L6.42128 18.5788L6.89921 19.0067ZM8.99117 16.6703L9.45627 16.1513L8.97834 15.7234L8.51325 16.243L8.99117 16.6703ZM11.316 14.0741L11.7805 13.5544L11.3025 13.1272L10.8381 13.6462L11.316 14.0741ZM13.6402 11.4779L14.1053 10.9589L13.6274 10.5304L13.1623 11.05L13.6402 11.4779ZM15.965 8.88167L16.4295 8.36205L15.9516 7.93416L15.4871 8.45379L15.965 8.88167ZM18.2892 6.28547L18.5221 6.02566L18.0442 5.59777L17.8113 5.85759L18.2892 6.28547Z" fill="currentColor"/>
<path d="M18.0377 7.73587C18.9235 7.73587 19.6415 7.01784 19.6415 6.1321C19.6415 5.24636 18.9235 4.52832 18.0377 4.52832C17.152 4.52832 16.434 5.24636 16.434 6.1321C16.434 7.01784 17.152 7.73587 18.0377 7.73587Z" fill="currentColor"/>
</g>
<defs>
<clipPath id="clip0_606_273">
<rect width="24" height="24" fill="currentColor"/>
</clipPath>
</defs>
</svg>
