<svg viewBox="80 75 362 362" fill="none" xmlns="http://www.w3.org/2000/svg">
<path d="M95.4369 287.931C77.6066 270.101 77.6066 241.192 95.4369 223.362L228.363 90.4365C246.193 72.6063 275.101 72.6063 292.932 90.4365L426.563 224.068C444.394 241.899 444.394 270.807 426.563 288.637L293.638 421.563C275.807 439.393 246.899 439.393 229.069 421.563L95.4369 287.931Z" fill="#3A31D8" fill-opacity="0.05"/>
<path fill-rule="evenodd" clip-rule="evenodd" d="M94.3606 222.286L227.286 89.3606C245.711 70.936 275.583 70.936 294.007 89.3606L427.639 222.992C446.064 241.417 446.064 271.289 427.639 289.714L294.714 422.639C276.289 441.064 246.417 441.064 227.992 422.639L94.3607 289.007C75.9361 270.583 75.9361 240.711 94.3606 222.286ZM95.4368 223.362C77.6065 241.192 77.6066 270.101 95.4368 287.931L229.069 421.563C246.899 439.393 275.807 439.393 293.638 421.563L426.563 288.638C444.393 270.807 444.393 241.899 426.563 224.069L292.931 90.4368C275.101 72.6065 246.193 72.6065 228.362 90.4367L95.4368 223.362Z" fill="#3A31D8" fill-opacity="0.35"/>
<path d="M120.855 288.973C103.024 271.143 103.024 242.234 120.855 224.404L228.028 117.23C245.858 99.4002 274.767 99.4001 292.597 117.23L399.771 224.404C417.601 242.234 417.601 271.143 399.771 288.973L292.597 396.147C274.767 413.977 245.859 413.977 228.028 396.147L120.855 288.973Z" fill="#3A31D8" fill-opacity="0.05"/>
<path fill-rule="evenodd" clip-rule="evenodd" d="M119.779 223.328L226.952 116.154C245.377 97.7296 275.249 97.7295 293.674 116.154L400.847 223.328C419.272 241.752 419.272 271.625 400.847 290.049L293.674 397.223C275.249 415.648 245.377 415.648 226.952 397.223L119.779 290.049C101.354 271.625 101.354 241.753 119.779 223.328ZM120.855 224.404C103.024 242.234 103.024 271.143 120.855 288.973L228.029 396.147C245.859 413.977 274.767 413.977 292.598 396.147L399.771 288.973C417.602 271.143 417.602 242.234 399.771 224.404L292.598 117.23C274.767 99.4 245.859 99.4001 228.028 117.23L120.855 224.404Z" fill="#3A31D8" fill-opacity="0.35"/>
<path d="M142.275 277.697C130.388 265.811 130.388 246.538 142.275 234.651L238.77 138.156C250.657 126.27 269.929 126.27 281.816 138.156L378.311 234.651C390.198 246.538 390.198 265.811 378.311 277.697L281.816 374.193C269.929 386.079 250.657 386.079 238.77 374.193L142.275 277.697Z" fill="#3A31D8" fill-opacity="0.05"/>
<path fill-rule="evenodd" clip-rule="evenodd" d="M141.199 233.575L237.694 137.08C250.175 124.599 270.411 124.599 282.892 137.08L379.387 233.575C391.868 246.056 391.868 266.292 379.387 278.774L282.892 375.269C270.411 387.75 250.175 387.75 237.694 375.269L141.199 278.774C128.718 266.292 128.718 246.056 141.199 233.575ZM142.275 234.651C130.388 246.538 130.388 265.811 142.275 277.697L238.77 374.192C250.657 386.079 269.929 386.079 281.816 374.192L378.311 277.697C390.198 265.811 390.198 246.538 378.311 234.651L281.816 138.156C269.929 126.27 250.657 126.27 238.77 138.156L142.275 234.651Z" fill="#3A31D8" fill-opacity="0.35"/>
<path d="M163.695 266.936C157.751 260.993 157.751 251.356 163.695 245.413L249.511 159.597C255.454 153.653 265.091 153.653 271.034 159.597L356.85 245.413C362.794 251.356 362.794 260.993 356.85 266.936L271.034 352.752C265.091 358.696 255.454 358.696 249.511 352.752L163.695 266.936Z" fill="#3A31D8" fill-opacity="0.05"/>
<path fill-rule="evenodd" clip-rule="evenodd" d="M162.619 244.337L248.435 158.521C254.973 151.983 265.573 151.983 272.111 158.521L357.927 244.337C364.465 250.875 364.465 261.474 357.927 268.012L272.111 353.828C265.573 360.366 254.973 360.366 248.435 353.828L162.619 268.012C156.081 261.474 156.081 250.875 162.619 244.337ZM163.695 245.413C157.752 251.356 157.752 260.993 163.695 266.936L249.511 352.752C255.455 358.696 265.091 358.696 271.034 352.752L356.851 266.936C362.794 260.993 362.794 251.356 356.851 245.413L271.034 159.597C265.091 153.653 255.455 153.653 249.511 159.597L163.695 245.413Z" fill="#3A31D8" fill-opacity="0.35"/>
<path d="M193.724 264.784C188.97 260.029 188.97 252.32 193.724 247.565L251.644 189.646C256.398 184.891 264.107 184.891 268.862 189.646L326.781 247.565C331.536 252.32 331.536 260.029 326.781 264.784L268.862 322.703C264.107 327.458 256.398 327.458 251.644 322.703L193.724 264.784Z" fill="#3A31D8" fill-opacity="0.05"/>
<path fill-rule="evenodd" clip-rule="evenodd" d="M192.648 246.489L250.568 188.57C255.917 183.221 264.589 183.221 269.938 188.57L327.857 246.489C333.206 251.838 333.206 260.511 327.857 265.86L269.938 323.779C264.589 329.128 255.917 329.128 250.568 323.779L192.648 265.86C187.299 260.511 187.299 251.838 192.648 246.489ZM193.725 247.565C188.97 252.32 188.97 260.029 193.725 264.784L251.644 322.703C256.398 327.458 264.107 327.458 268.862 322.703L326.781 264.784C331.536 260.029 331.536 252.32 326.781 247.565L268.862 189.646C264.107 184.891 256.398 184.891 251.644 189.646L193.725 247.565Z" fill="#3A31D8" fill-opacity="0.35"/>
<path d="M222.678 261.555C219.706 258.583 219.706 253.765 222.678 250.793L254.852 218.619C257.824 215.647 262.642 215.647 265.614 218.619L297.788 250.793C300.759 253.765 300.76 258.583 297.788 261.555L265.614 293.729C262.642 296.701 257.824 296.701 254.852 293.729L222.678 261.555Z" fill="#3A31D8" fill-opacity="0.05"/>
<path fill-rule="evenodd" clip-rule="evenodd" d="M221.602 249.717L253.776 217.543C257.342 213.977 263.124 213.977 266.69 217.543L298.864 249.717C302.43 253.283 302.43 259.065 298.864 262.631L266.69 294.805C263.124 298.371 257.342 298.371 253.776 294.805L221.602 262.631C218.036 259.065 218.036 253.283 221.602 249.717ZM222.678 250.793C219.706 253.765 219.706 258.583 222.678 261.555L254.852 293.729C257.824 296.701 262.642 296.701 265.614 293.729L297.788 261.555C300.76 258.583 300.76 253.765 297.788 250.793L265.614 218.619C262.642 215.647 257.824 215.647 254.852 218.619L222.678 250.793Z" fill="url(#paint0_linear_592_25)"/>
<g filter="url(#filter0_dddddd_592_25)">
<path d="M268.229 248.01L276.219 256L268.229 263.99M252.249 263.99L244.259 256L252.249 248.01M263.663 243.444L256.815 268.556" stroke="#E6E5F5" stroke-width="3" stroke-linecap="round" stroke-linejoin="round"/>
</g>
<path d="M315 174.01C315 171.795 316.795 170 319.01 170H342.99C345.205 170 347 171.795 347 174.01V197.99C347 200.205 345.205 202 342.99 202H319.01C316.795 202 315 200.205 315 197.99V174.01Z" fill="#3A31D8"/>
<path fill-rule="evenodd" clip-rule="evenodd" d="M328.15 180.15C327.847 180.15 327.549 180.22 327.278 180.355C327.008 180.491 326.773 180.687 326.591 180.929C326.591 180.929 326.591 180.929 326.591 180.929L325.604 182.246H336.396L335.409 180.929C335.409 180.929 335.409 180.929 335.409 180.929C335.041 180.438 334.463 180.15 333.85 180.15H328.15ZM339.552 185.398C339.552 184.456 339.247 183.54 338.682 182.787C338.682 182.787 338.682 182.787 338.682 182.787L336.612 180.027C335.96 179.158 334.937 178.646 333.85 178.646H328.15C327.614 178.646 327.085 178.771 326.606 179.01C326.127 179.25 325.71 179.598 325.388 180.027L323.318 182.787C323.318 182.787 323.318 182.787 323.318 182.787C322.753 183.54 322.448 184.456 322.448 185.398C322.448 186.234 322.78 187.035 323.371 187.627C323.431 187.686 323.493 187.743 323.557 187.798C323.493 187.852 323.431 187.909 323.371 187.969C322.78 188.56 322.448 189.362 322.448 190.198C322.448 191.034 322.78 191.835 323.371 192.427C323.962 193.018 324.764 193.35 325.6 193.35H336.4C337.236 193.35 338.038 193.018 338.629 192.427C339.22 191.835 339.552 191.034 339.552 190.198C339.552 189.362 339.22 188.56 338.629 187.969C338.569 187.909 338.507 187.852 338.443 187.798C338.507 187.743 338.569 187.686 338.629 187.627C339.22 187.035 339.552 186.234 339.552 185.398ZM336.4 187.046C336.837 187.046 337.256 186.872 337.565 186.563C337.874 186.254 338.048 185.835 338.048 185.398C338.048 184.961 337.874 184.542 337.565 184.232C337.256 183.923 336.837 183.75 336.4 183.75H325.6C325.163 183.75 324.744 183.923 324.435 184.232C324.126 184.542 323.952 184.961 323.952 185.398C323.952 185.835 324.126 186.254 324.435 186.563C324.744 186.872 325.163 187.046 325.6 187.046H336.4ZM336.4 188.55C336.837 188.55 337.256 188.723 337.565 189.032C337.874 189.342 338.048 189.761 338.048 190.198C338.048 190.635 337.874 191.054 337.565 191.363C337.256 191.672 336.837 191.846 336.4 191.846H325.6C325.163 191.846 324.744 191.672 324.435 191.363C324.126 191.054 323.952 190.635 323.952 190.198C323.952 189.761 324.126 189.342 324.435 189.032C324.744 188.723 325.163 188.55 325.6 188.55H336.4ZM333.248 185.398C333.248 184.983 333.585 184.646 334 184.646H334.006C334.422 184.646 334.758 184.983 334.758 185.398V185.404C334.758 185.819 334.422 186.156 334.006 186.156H334C333.585 186.156 333.248 185.819 333.248 185.404V185.398ZM335.648 185.398C335.648 184.983 335.985 184.646 336.4 184.646H336.406C336.822 184.646 337.158 184.983 337.158 185.398V185.404C337.158 185.819 336.822 186.156 336.406 186.156H336.4C335.985 186.156 335.648 185.819 335.648 185.404V185.398ZM333.248 190.198C333.248 189.783 333.585 189.446 334 189.446H334.006C334.422 189.446 334.758 189.783 334.758 190.198V190.204C334.758 190.619 334.422 190.956 334.006 190.956H334C333.585 190.956 333.248 190.619 333.248 190.204V190.198ZM335.648 190.198C335.648 189.783 335.985 189.446 336.4 189.446H336.406C336.822 189.446 337.158 189.783 337.158 190.198V190.204C337.158 190.619 336.822 190.956 336.406 190.956H336.4C335.985 190.956 335.648 190.619 335.648 190.204V190.198Z" fill="white"/>
<path d="M189 193.01C189 190.795 190.795 189 193.01 189H216.99C219.205 189 221 190.795 221 193.01V216.99C221 219.205 219.205 221 216.99 221H193.01C190.795 221 189 219.205 189 216.99V193.01Z" fill="#3A31D8"/>
<g clip-path="url(#clip0_592_25)">
<path fill-rule="evenodd" clip-rule="evenodd" d="M200.85 196.7C199.001 196.7 197.502 198.198 197.502 200.047C197.502 201.896 199.001 203.395 200.85 203.395C202.699 203.395 204.198 201.896 204.198 200.047C204.198 198.198 202.699 196.7 200.85 196.7ZM196.5 200.047C196.5 197.645 198.447 195.697 200.85 195.697C203.253 195.697 205.2 197.645 205.2 200.047C205.2 202.45 203.253 204.398 200.85 204.398C198.447 204.398 196.5 202.45 196.5 200.047Z" fill="white"/>
<path fill-rule="evenodd" clip-rule="evenodd" d="M196.741 206.082H204.959V214.3H196.741V206.082ZM197.744 207.084V213.297H203.956V207.084H197.744ZM210.028 206.321L214.634 214.3H205.421L210.028 206.321ZM207.157 213.297H212.898L210.028 208.326L207.157 213.297Z" fill="white"/>
<path d="M210.284 200.289V200.032H209.771V200.289H210.284ZM209.771 200.521V200.778H210.284V200.521H209.771ZM210.284 202.376V202.119H209.771V202.376H210.284ZM209.771 202.839V203.096H210.284V202.839H209.771ZM210.284 204.694V204.437H209.771V204.694H210.284ZM209.771 205.158V205.415H210.284V205.158H209.771ZM210.284 207.013V206.756H209.771V207.013H210.284ZM209.771 207.476V207.733H210.284V207.476H209.771ZM210.284 209.331V209.074H209.771V209.331H210.284ZM209.771 209.795V210.051H210.284V209.795H209.771ZM210.284 211.649V211.393H209.771V211.649H210.284ZM209.771 200.289V200.521H210.284V200.289H209.771ZM209.771 202.376V202.839H210.284V202.376H209.771ZM209.771 204.694V205.158H210.284V204.694H209.771ZM209.771 207.013V207.476H210.284V207.013H209.771ZM209.771 209.331V209.795H210.284V209.331H209.771ZM209.771 211.649V211.881H210.284V211.649H209.771ZM210.284 200.289V200.032H209.771V200.289H210.284ZM209.771 200.521V200.778H210.284V200.521H209.771ZM210.284 202.376V202.119H209.771V202.376H210.284ZM209.771 202.839V203.096H210.284V202.839H209.771ZM210.284 204.694V204.437H209.771V204.694H210.284ZM209.771 205.158V205.415H210.284V205.158H209.771ZM210.284 207.013V206.756H209.771V207.013H210.284ZM209.771 207.476V207.733H210.284V207.476H209.771ZM210.284 209.331V209.074H209.771V209.331H210.284ZM209.771 209.795V210.051H210.284V209.795H209.771ZM210.284 211.649V211.393H209.771V211.649H210.284ZM209.771 200.289V200.521H210.284V200.289H209.771ZM209.771 202.376V202.839H210.284V202.376H209.771ZM209.771 204.694V205.158H210.284V204.694H209.771ZM209.771 207.013V207.476H210.284V207.013H209.771ZM209.771 209.331V209.795H210.284V209.331H209.771ZM209.771 211.649V211.881H210.284V211.649H209.771Z" fill="white"/>
<path d="M209.544 200.545H209.801V200.032H209.544V200.545ZM209.246 200.032H208.99V200.545H209.246V200.032ZM206.864 200.545H207.12V200.032H206.864V200.545ZM206.268 200.032H206.012V200.545H206.268V200.032ZM203.885 200.545H204.142V200.032H203.885V200.545ZM203.29 200.032H203.033V200.545H203.29V200.032ZM200.906 200.545H201.163V200.032H200.906V200.545ZM209.544 200.032H209.246V200.545H209.544V200.032ZM206.864 200.032H206.268V200.545H206.864V200.032ZM203.885 200.032H203.29V200.545H203.885V200.032ZM200.906 200.032H200.609V200.545H200.906V200.032ZM209.544 200.545H209.801V200.032H209.544V200.545ZM209.246 200.032H208.99V200.545H209.246V200.032ZM206.864 200.545H207.12V200.032H206.864V200.545ZM206.268 200.032H206.012V200.545H206.268V200.032ZM203.885 200.545H204.142V200.032H203.885V200.545ZM203.29 200.032H203.033V200.545H203.29V200.032ZM200.906 200.545H201.163V200.032H200.906V200.545ZM209.544 200.032H209.246V200.545H209.544V200.032ZM206.864 200.032H206.268V200.545H206.864V200.032ZM203.885 200.032H203.29V200.545H203.885V200.032ZM200.906 200.032H200.609V200.545H200.906V200.032Z" fill="white"/>
<path d="M210.219 200.219L210.389 200.028L210.007 199.686L209.836 199.876L210.219 200.219ZM201.106 210.396L201.277 210.205L200.895 209.863L200.724 210.054L201.106 210.396ZM202.211 208.392L202.041 208.584L202.423 208.926L202.594 208.734L202.211 208.392ZM202.966 208.319L203.137 208.128L202.754 207.786L202.583 207.977L202.966 208.319ZM204.071 206.315L203.9 206.506L204.282 206.849L204.454 206.658L204.071 206.315ZM204.826 206.242L204.997 206.051L204.614 205.709L204.443 205.9L204.826 206.242ZM205.931 204.238L205.76 204.429L206.142 204.772L206.313 204.581L205.931 204.238ZM206.685 204.165L206.856 203.974L206.474 203.632L206.303 203.823L206.685 204.165ZM207.791 202.161L207.619 202.352L208.001 202.694L208.173 202.504L207.791 202.161ZM208.545 202.088L208.716 201.897L208.333 201.555L208.162 201.746L208.545 202.088ZM209.65 200.084L209.479 200.275L209.861 200.618L210.032 200.427L209.65 200.084ZM200.92 210.604L201.106 210.396L200.724 210.054L200.538 210.261L200.92 210.604ZM202.594 208.734L202.966 208.319L202.583 207.977L202.211 208.393L202.594 208.734ZM204.454 206.658L204.825 206.242L204.443 205.9L204.071 206.315L204.454 206.658ZM206.313 204.581L206.685 204.165L206.303 203.823L205.931 204.238L206.313 204.581ZM208.173 202.504L208.544 202.088L208.162 201.746L207.791 202.161L208.173 202.504ZM210.032 200.427L210.219 200.219L209.836 199.876L209.65 200.084L210.032 200.427ZM210.219 200.219L210.389 200.028L210.007 199.686L209.836 199.876L210.219 200.219ZM201.106 210.396L201.277 210.205L200.895 209.863L200.724 210.054L201.106 210.396ZM202.211 208.392L202.041 208.584L202.423 208.926L202.594 208.734L202.211 208.392ZM202.966 208.319L203.137 208.128L202.754 207.786L202.583 207.977L202.966 208.319ZM204.071 206.315L203.9 206.506L204.282 206.849L204.454 206.658L204.071 206.315ZM204.826 206.242L204.997 206.051L204.614 205.709L204.443 205.9L204.826 206.242ZM205.931 204.238L205.76 204.429L206.142 204.772L206.313 204.581L205.931 204.238ZM206.685 204.165L206.856 203.974L206.474 203.632L206.303 203.823L206.685 204.165ZM207.791 202.161L207.619 202.352L208.001 202.694L208.173 202.504L207.791 202.161ZM208.545 202.088L208.716 201.897L208.333 201.555L208.162 201.746L208.545 202.088ZM209.65 200.084L209.479 200.275L209.861 200.618L210.032 200.427L209.65 200.084ZM200.92 210.604L201.106 210.396L200.724 210.054L200.538 210.261L200.92 210.604ZM202.594 208.734L202.966 208.319L202.583 207.977L202.211 208.393L202.594 208.734ZM204.454 206.658L204.825 206.242L204.443 205.9L204.071 206.315L204.454 206.658ZM206.313 204.581L206.685 204.165L206.303 203.823L205.931 204.238L206.313 204.581ZM208.173 202.504L208.544 202.088L208.162 201.746L207.791 202.161L208.173 202.504ZM210.032 200.427L210.219 200.219L209.836 199.876L209.65 200.084L210.032 200.427Z" fill="white"/>
<path d="M209.831 201.587C210.54 201.587 211.114 201.013 211.114 200.304C211.114 199.595 210.54 199.021 209.831 199.021C209.122 199.021 208.548 199.595 208.548 200.304C208.548 201.013 209.122 201.587 209.831 201.587Z" fill="white"/>
</g>
<path d="M176 317.01C176 314.795 177.795 313 180.01 313H203.99C206.205 313 208 314.795 208 317.01V340.99C208 343.205 206.205 345 203.99 345H180.01C177.795 345 176 343.205 176 340.99V317.01Z" fill="#3A31D8"/>
<g clip-path="url(#clip1_592_25)">
<path fill-rule="evenodd" clip-rule="evenodd" d="M182.4 332.002C182.4 331.525 182.589 331.067 182.927 330.729C183.264 330.392 183.722 330.202 184.2 330.202H185.4C185.877 330.202 186.335 330.392 186.672 330.729C187.01 331.067 187.2 331.525 187.2 332.002V333.202C187.2 333.679 187.01 334.137 186.672 334.475C186.335 334.812 185.877 335.002 185.4 335.002H184.2C183.722 335.002 183.264 334.812 182.927 334.475C182.589 334.137 182.4 333.679 182.4 333.202V332.002ZM184.2 331.402C184.04 331.402 183.888 331.465 183.775 331.578C183.663 331.69 183.6 331.843 183.6 332.002V333.202C183.6 333.361 183.663 333.514 183.775 333.626C183.888 333.739 184.04 333.802 184.2 333.802H185.4C185.559 333.802 185.711 333.739 185.824 333.626C185.936 333.514 186 333.361 186 333.202V332.002C186 331.843 185.936 331.69 185.824 331.578C185.711 331.465 185.559 331.402 185.4 331.402H184.2ZM196.8 332.002C196.8 331.525 196.989 331.067 197.327 330.729C197.664 330.392 198.122 330.202 198.6 330.202H199.8C200.277 330.202 200.735 330.392 201.072 330.729C201.41 331.067 201.6 331.525 201.6 332.002V333.202C201.6 333.679 201.41 334.137 201.072 334.475C200.735 334.812 200.277 335.002 199.8 335.002H198.6C198.122 335.002 197.664 334.812 197.327 334.475C196.989 334.137 196.8 333.679 196.8 333.202V332.002ZM198.6 331.402C198.44 331.402 198.288 331.465 198.175 331.578C198.063 331.69 198 331.843 198 332.002V333.202C198 333.361 198.063 333.514 198.175 333.626C198.288 333.739 198.44 333.802 198.6 333.802H199.8C199.959 333.802 200.111 333.739 200.224 333.626C200.336 333.514 200.4 333.361 200.4 333.202V332.002C200.4 331.843 200.336 331.69 200.224 331.578C200.111 331.465 199.959 331.402 199.8 331.402H198.6ZM189.6 324.802C189.6 324.325 189.789 323.867 190.127 323.529C190.464 323.192 190.922 323.002 191.4 323.002H192.6C193.077 323.002 193.535 323.192 193.872 323.529C194.21 323.867 194.4 324.325 194.4 324.802V326.002C194.4 326.479 194.21 326.937 193.872 327.275C193.535 327.612 193.077 327.802 192.6 327.802H191.4C190.922 327.802 190.464 327.612 190.127 327.275C189.789 326.937 189.6 326.479 189.6 326.002V324.802ZM191.4 324.202C191.24 324.202 191.088 324.265 190.975 324.378C190.863 324.49 190.8 324.643 190.8 324.802V326.002C190.8 326.161 190.863 326.314 190.975 326.426C191.088 326.539 191.24 326.602 191.4 326.602H192.6C192.759 326.602 192.911 326.539 193.024 326.426C193.136 326.314 193.2 326.161 193.2 326.002V324.802C193.2 324.643 193.136 324.49 193.024 324.378C192.911 324.265 192.759 324.202 192.6 324.202H191.4Z" fill="white"/>
<path d="M189.6 324.802H184.639C184.507 324.573 184.303 324.394 184.059 324.293C183.815 324.192 183.544 324.175 183.289 324.243C183.034 324.311 182.808 324.462 182.648 324.672C182.487 324.881 182.4 325.138 182.4 325.402C182.4 325.666 182.487 325.923 182.648 326.133C182.808 326.342 183.034 326.493 183.289 326.561C183.544 326.63 183.815 326.612 184.059 326.511C184.303 326.41 184.507 326.231 184.639 326.002H187.84C186.295 326.978 185.141 328.464 184.576 330.202H185.4C185.548 330.202 185.692 330.219 185.829 330.254C186.162 329.384 186.674 328.594 187.333 327.935C187.991 327.276 188.781 326.764 189.651 326.432C189.617 326.291 189.599 326.147 189.6 326.002V324.802ZM194.348 326.432C194.382 326.291 194.4 326.147 194.4 326.002V324.802H199.36C199.493 324.573 199.696 324.394 199.94 324.293C200.185 324.192 200.455 324.175 200.71 324.243C200.965 324.311 201.191 324.462 201.352 324.672C201.513 324.881 201.6 325.138 201.6 325.402C201.6 325.666 201.513 325.923 201.352 326.133C201.191 326.342 200.965 326.493 200.71 326.561C200.455 326.63 200.185 326.612 199.94 326.511C199.696 326.41 199.493 326.231 199.36 326.002H196.159C197.704 326.978 198.859 328.464 199.423 330.202H198.6C198.452 330.202 198.308 330.219 198.17 330.254C197.837 329.384 197.325 328.594 196.667 327.935C196.008 327.276 195.218 326.764 194.348 326.432Z" fill="white"/>
</g>
<path d="M344 285.01C344 282.795 345.795 281 348.01 281H371.99C374.205 281 376 282.795 376 285.01V308.99C376 311.205 374.205 313 371.99 313H348.01C345.795 313 344 311.205 344 308.99V285.01Z" fill="#3A31D8"/>
<g clip-path="url(#clip2_592_25)">
<path d="M359.187 298.469C359.081 298.469 358.98 298.427 358.905 298.352L358.309 297.758C358.27 297.721 358.24 297.677 358.219 297.628C358.198 297.579 358.187 297.527 358.186 297.474C358.186 297.42 358.196 297.368 358.216 297.319C358.236 297.269 358.265 297.225 358.303 297.187C358.34 297.149 358.385 297.12 358.434 297.1C358.483 297.079 358.536 297.069 358.589 297.07C358.642 297.07 358.695 297.081 358.744 297.102C358.792 297.123 358.837 297.153 358.874 297.191L359.187 297.504L360.132 296.56C360.207 296.485 360.309 296.443 360.415 296.443C360.521 296.443 360.623 296.485 360.698 296.56C360.773 296.635 360.815 296.736 360.815 296.843C360.815 296.949 360.773 297.051 360.698 297.126L359.47 298.352C359.395 298.427 359.293 298.469 359.187 298.469ZM366.67 298.351L367.897 297.126C367.97 297.05 368.01 296.949 368.009 296.844C368.008 296.739 367.966 296.639 367.892 296.565C367.818 296.491 367.717 296.449 367.612 296.448C367.508 296.447 367.407 296.487 367.331 296.56L366.386 297.504L366.073 297.191C366.036 297.153 365.992 297.123 365.943 297.102C365.894 297.081 365.841 297.07 365.788 297.07C365.735 297.069 365.683 297.079 365.633 297.1C365.584 297.12 365.54 297.149 365.502 297.187C365.465 297.225 365.435 297.269 365.415 297.319C365.395 297.368 365.385 297.42 365.385 297.474C365.386 297.527 365.397 297.579 365.418 297.628C365.439 297.677 365.47 297.721 365.508 297.758L366.105 298.352C366.142 298.389 366.186 298.419 366.234 298.439C366.283 298.459 366.335 298.469 366.387 298.469C366.44 298.469 366.492 298.459 366.54 298.439C366.589 298.418 366.633 298.389 366.67 298.351ZM354.022 293.362L356.067 292.094C356.183 292.022 356.278 291.922 356.344 291.804C356.411 291.685 356.446 291.552 356.446 291.416C356.447 291.28 356.413 291.147 356.347 291.028C356.282 290.909 356.187 290.808 356.072 290.736L354.026 289.448C353.905 289.372 353.766 289.329 353.623 289.325C353.48 289.321 353.339 289.355 353.213 289.424C353.088 289.494 352.984 289.595 352.911 289.718C352.838 289.841 352.8 289.982 352.8 290.125V292.682C352.8 292.824 352.838 292.964 352.911 293.087C352.983 293.209 353.087 293.311 353.211 293.38C353.336 293.449 353.476 293.484 353.619 293.481C353.761 293.478 353.9 293.436 354.022 293.362ZM355.646 291.413L353.6 292.682V290.125L355.646 291.413ZM369.6 297.4C369.6 298.944 368.344 300.2 366.8 300.2C366.127 300.199 365.478 299.956 364.969 299.515C364.461 299.074 364.128 298.466 364.032 297.8H362.368C362.271 298.466 361.939 299.074 361.43 299.515C360.922 299.956 360.273 300.199 359.6 300.2C358.927 300.199 358.277 299.956 357.769 299.515C357.261 299.075 356.928 298.466 356.832 297.8H356.386C355.608 297.8 354.906 297.481 354.4 296.966V301C354.4 302.323 355.477 303.4 356.8 303.4H356.832C357.027 302.046 358.192 301 359.6 301C361.144 301 362.4 302.256 362.4 303.8C362.4 305.344 361.144 306.6 359.6 306.6C358.927 306.599 358.277 306.356 357.769 305.915C357.261 305.475 356.928 304.866 356.832 304.2H356.8C355.035 304.2 353.6 302.765 353.6 301V295.319C352.697 295.134 351.886 294.643 351.303 293.929C350.72 293.215 350.401 292.322 350.4 291.4C350.4 289.194 352.194 287.4 354.4 287.4C356.606 287.4 358.4 289.194 358.4 291.4C358.398 292.454 357.982 293.464 357.24 294.213C356.499 294.961 355.492 295.387 354.438 295.398C354.527 295.85 354.77 296.256 355.125 296.548C355.48 296.84 355.926 297 356.386 297H356.832C357.027 295.646 358.192 294.6 359.6 294.6C360.273 294.601 360.922 294.844 361.431 295.285C361.939 295.726 362.271 296.334 362.368 297H364.032C364.128 296.334 364.461 295.726 364.969 295.285C365.478 294.844 366.127 294.601 366.8 294.6C368.344 294.6 369.6 295.856 369.6 297.4ZM357.6 303.8C357.6 304.902 358.498 305.8 359.6 305.8C360.702 305.8 361.6 304.902 361.6 303.8C361.6 302.698 360.702 301.8 359.6 301.8C358.498 301.8 357.6 302.698 357.6 303.8ZM354.4 294.6C356.165 294.6 357.6 293.165 357.6 291.4C357.6 289.635 356.165 288.2 354.4 288.2C352.635 288.2 351.2 289.635 351.2 291.4C351.2 293.165 352.635 294.6 354.4 294.6ZM361.6 297.4C361.6 296.298 360.702 295.4 359.6 295.4C358.498 295.4 357.6 296.298 357.6 297.4C357.6 298.502 358.498 299.4 359.6 299.4C360.702 299.4 361.6 298.502 361.6 297.4ZM368.8 297.4C368.8 296.298 367.902 295.4 366.8 295.4C365.698 295.4 364.8 296.298 364.8 297.4C364.8 298.502 365.698 299.4 366.8 299.4C367.902 299.4 368.8 298.502 368.8 297.4ZM358.4 303.8C358.4 303.906 358.442 304.008 358.517 304.083C358.592 304.158 358.694 304.2 358.8 304.2C358.906 304.2 359.008 304.158 359.083 304.083C359.158 304.008 359.2 303.906 359.2 303.8C359.2 303.694 359.158 303.592 359.083 303.517C359.008 303.442 358.906 303.4 358.8 303.4C358.694 303.4 358.592 303.442 358.517 303.517C358.442 303.592 358.4 303.694 358.4 303.8ZM360 303.8C360 303.906 360.042 304.008 360.117 304.083C360.192 304.158 360.294 304.2 360.4 304.2C360.506 304.2 360.608 304.158 360.683 304.083C360.758 304.008 360.8 303.906 360.8 303.8C360.8 303.694 360.758 303.592 360.683 303.517C360.608 303.442 360.506 303.4 360.4 303.4C360.294 303.4 360.192 303.442 360.117 303.517C360.042 303.592 360 303.694 360 303.8ZM369.6 303.8C369.6 305.344 368.344 306.6 366.8 306.6C366.127 306.599 365.477 306.355 364.969 305.914C364.461 305.473 364.128 304.864 364.032 304.198C364.026 304.199 364.022 304.202 364.015 304.202L363.61 304.216H363.597C363.494 304.213 363.395 304.171 363.323 304.098C363.25 304.024 363.209 303.926 363.207 303.823C363.205 303.719 363.244 303.62 363.314 303.544C363.384 303.468 363.481 303.423 363.584 303.417L363.989 303.403C364.003 303.402 364.017 303.408 364.03 303.409C364.125 302.741 364.457 302.13 364.966 301.688C365.475 301.245 366.126 301.001 366.8 301C368.344 301 369.6 302.256 369.6 303.8ZM368.8 303.8C368.8 302.698 367.902 301.8 366.8 301.8C365.698 301.8 364.8 302.698 364.8 303.8C364.8 304.902 365.698 305.8 366.8 305.8C367.902 305.8 368.8 304.902 368.8 303.8Z" fill="white"/>
</g>
<defs>
<filter id="filter0_dddddd_592_25" x="0.056015" y="-4.18294" width="520.366" height="520.366" filterUnits="userSpaceOnUse" color-interpolation-filters="sRGB">
<feFlood flood-opacity="0" result="BackgroundImageFix"/>
<feColorMatrix in="SourceAlpha" type="matrix" values="0 0 0 0 0 0 0 0 0 0 0 0 0 0 0 0 0 0 127 0" result="hardAlpha"/>
<feOffset/>
<feGaussianBlur stdDeviation="5.76"/>
<feColorMatrix type="matrix" values="0 0 0 0 0.227451 0 0 0 0 0.192157 0 0 0 0 0.847059 0 0 0 1 0"/>
<feBlend mode="normal" in2="BackgroundImageFix" result="effect1_dropShadow_592_25"/>
<feColorMatrix in="SourceAlpha" type="matrix" values="0 0 0 0 0 0 0 0 0 0 0 0 0 0 0 0 0 0 127 0" result="hardAlpha"/>
<feOffset/>
<feGaussianBlur stdDeviation="20.16"/>
<feColorMatrix type="matrix" values="0 0 0 0 0.227451 0 0 0 0 0.192157 0 0 0 0 0.847059 0 0 0 1 0"/>
<feBlend mode="normal" in2="effect1_dropShadow_592_25" result="effect2_dropShadow_592_25"/>
<feColorMatrix in="SourceAlpha" type="matrix" values="0 0 0 0 0 0 0 0 0 0 0 0 0 0 0 0 0 0 127 0" result="hardAlpha"/>
<feOffset/>
<feGaussianBlur stdDeviation="40.32"/>
<feColorMatrix type="matrix" values="0 0 0 0 0.227451 0 0 0 0 0.192157 0 0 0 0 0.847059 0 0 0 1 0"/>
<feBlend mode="normal" in2="effect2_dropShadow_592_25" result="effect3_dropShadow_592_25"/>
<feColorMatrix in="SourceAlpha" type="matrix" values="0 0 0 0 0 0 0 0 0 0 0 0 0 0 0 0 0 0 127 0" result="hardAlpha"/>
<feOffset/>
<feGaussianBlur stdDeviation="2.88"/>
<feColorMatrix type="matrix" values="0 0 0 0 0.227451 0 0 0 0 0.192157 0 0 0 0 0.847059 0 0 0 1 0"/>
<feBlend mode="normal" in2="effect3_dropShadow_592_25" result="effect4_dropShadow_592_25"/>
<feColorMatrix in="SourceAlpha" type="matrix" values="0 0 0 0 0 0 0 0 0 0 0 0 0 0 0 0 0 0 127 0" result="hardAlpha"/>
<feOffset/>
<feGaussianBlur stdDeviation="69.12"/>
<feColorMatrix type="matrix" values="0 0 0 0 0.227451 0 0 0 0 0.192157 0 0 0 0 0.847059 0 0 0 1 0"/>
<feBlend mode="normal" in2="effect4_dropShadow_592_25" result="effect5_dropShadow_592_25"/>
<feColorMatrix in="SourceAlpha" type="matrix" values="0 0 0 0 0 0 0 0 0 0 0 0 0 0 0 0 0 0 127 0" result="hardAlpha"/>
<feOffset/>
<feGaussianBlur stdDeviation="120.96"/>
<feColorMatrix type="matrix" values="0 0 0 0 0.227451 0 0 0 0 0.192157 0 0 0 0 0.847059 0 0 0 1 0"/>
<feBlend mode="normal" in2="effect5_dropShadow_592_25" result="effect6_dropShadow_592_25"/>
<feBlend mode="normal" in="SourceGraphic" in2="effect6_dropShadow_592_25" result="shape"/>
</filter>
<linearGradient id="paint0_linear_592_25" x1="260.409" y1="220.349" x2="260.409" y2="289.266" gradientUnits="userSpaceOnUse">
<stop stop-color="#9593BB"/>
<stop offset="0.499788" stop-color="#3A31D8"/>
<stop offset="1" stop-color="#9593BB"/>
</linearGradient>
<clipPath id="clip0_592_25">
<rect width="19.2" height="19.2" fill="white" transform="translate(195.401 195.398)"/>
</clipPath>
<clipPath id="clip1_592_25">
<rect width="19.2" height="19.2" fill="white" transform="translate(182.4 319.402)"/>
</clipPath>
<clipPath id="clip2_592_25">
<rect width="19.2" height="19.2" fill="white" transform="translate(350.4 287.4)"/>
</clipPath>
</defs>
</svg>
